<?xml version="1.0" standalone="no"?>
<!DOCTYPE svg PUBLIC "-//W3C//DTD SVG 20010904//EN"
 "http://www.w3.org/TR/2001/REC-SVG-20010904/DTD/svg10.dtd">
<svg version="1.0" xmlns="http://www.w3.org/2000/svg"
 width="500.000000pt" height="500.000000pt" viewBox="0 0 500.000000 500.000000"
 preserveAspectRatio="xMidYMid meet">

<g transform="translate(0.000000,500.000000) scale(0.100000,-0.100000)"
fill="#000000" stroke="none">
<path d="M2228 4598 c-16 -13 -200 -247 -281 -358 -22 -30 -44 -57 -48 -60
-16 -12 -59 -84 -59 -100 0 -29 35 -51 94 -57 l56 -6 0 -848 0 -849 -60 0
c-99 0 -183 -47 -222 -123 -18 -36 -21 -60 -22 -165 -1 -118 0 -124 23 -143
13 -10 38 -19 57 -19 19 0 34 -2 34 -5 0 -3 -27 -45 -59 -94 -153 -227 -282
-520 -336 -764 -20 -92 -27 -94 -114 -36 -110 73 -155 157 -155 285 0 68 5 90
27 137 31 63 87 117 153 149 24 12 43 27 41 32 -7 20 -121 48 -202 49 -100 2
-168 -20 -228 -74 -99 -86 -141 -216 -135 -413 3 -107 7 -128 32 -183 67 -146
195 -213 408 -213 98 0 107 -2 113 -20 37 -115 210 -148 720 -136 258 5 271 5
282 -13 31 -49 284 -55 330 -8 21 21 10 58 -26 93 -34 32 -46 74 -61 209 -18
161 -18 159 46 200 30 19 59 33 65 30 5 -4 9 -24 9 -47 0 -89 48 -349 79 -430
15 -40 41 -49 153 -51 102 -2 102 -2 117 25 18 31 18 30 -42 116 -16 22 -33
58 -39 79 -5 21 -12 171 -15 333 l-5 296 30 70 c32 77 67 206 78 294 4 30 11
65 15 78 l9 22 655 0 655 0 16 25 c25 39 16 235 -14 292 -39 75 -99 109 -207
117 -37 3 -71 8 -76 11 -10 7 -13 1653 -3 1679 4 11 20 16 53 16 63 0 95 18
99 56 3 31 -5 42 -280 406 -48 64 -95 118 -104 122 -8 3 -381 6 -828 6 -635 0
-816 -3 -828 -12z m1721 -277 c66 -88 117 -162 114 -165 -9 -9 -2001 -7 -2006
2 -3 4 50 78 117 164 l121 157 767 1 767 0 120 -159z m31 -1156 l0 -845 -132
0 c-175 0 -168 8 -168 -171 l0 -138 -156 -3 c-86 -2 -158 -1 -160 1 -2 2 -4
109 -4 236 l0 233 57 4 c60 5 93 30 93 71 0 28 -187 354 -210 367 -10 5 -77
10 -147 10 l-129 0 -28 88 c-49 149 -157 346 -204 371 -10 5 -36 12 -59 16
-37 6 -45 3 -68 -19 -23 -23 -25 -32 -25 -121 l0 -95 -42 0 c-41 0 -44 2 -70
49 -50 89 -137 191 -162 191 -8 0 -27 -10 -41 -22 -25 -22 -26 -28 -29 -143
-9 -292 -17 -366 -46 -425 -38 -75 -80 -196 -80 -226 0 -27 33 -98 58 -127 10
-11 15 -32 13 -55 -2 -20 -4 -48 -5 -62 -1 -23 -4 -25 -56 -25 l-55 0 -2 843
-3 842 930 0 930 0 0 -845z m-1154 113 c36 -43 116 -197 130 -252 l7 -29 -64
45 c-35 25 -80 48 -99 51 -57 9 -90 25 -90 44 0 19 37 161 46 175 11 18 34 6
70 -34z m-361 -70 c51 -86 52 -99 9 -125 -19 -13 -42 -23 -50 -23 -8 0 -35
-28 -62 -61 -41 -54 -47 -59 -50 -39 -10 65 33 246 73 306 21 32 33 23 80 -58z
m311 -302 c30 -23 7 -52 -38 -48 -22 2 -39 -2 -47 -12 -16 -19 -41 -10 -41 15
0 49 81 78 126 45z m-266 -16 c11 -11 20 -27 20 -35 0 -22 -29 -31 -51 -16
-11 6 -30 9 -42 6 -15 -4 -28 -1 -36 9 -35 42 69 76 109 36z m405 -61 c61 -15
93 -52 106 -125 25 -136 -34 -298 -118 -319 -38 -9 -26 -41 14 -37 29 3 37 -3
78 -59 25 -34 48 -73 52 -86 12 -52 -5 -395 -25 -488 -45 -207 -132 -376 -257
-500 -61 -62 -157 -135 -175 -135 -12 0 9 168 28 216 11 28 23 71 27 97 6 39
5 47 -8 47 -11 0 -20 -15 -27 -42 -6 -24 -21 -70 -33 -103 -20 -54 -22 -80
-22 -250 0 -115 5 -223 14 -273 12 -73 19 -90 52 -129 45 -51 47 -59 17 -69
-35 -12 -221 -9 -244 4 -24 13 -34 77 -34 226 0 118 -25 317 -49 396 l-19 61
68 137 c92 183 134 306 134 397 1 66 -2 75 -45 150 -62 106 -77 149 -60 169
18 22 41 20 92 -8 55 -30 127 -53 202 -64 31 -5 57 -8 57 -7 0 2 -29 24 -65
50 -65 48 -101 88 -122 135 -19 46 -63 89 -146 144 -93 61 -160 128 -187 188
-17 38 -17 45 -3 91 24 82 60 155 81 166 12 6 40 11 65 11 34 0 49 -6 67 -25
27 -29 42 -31 65 -9 15 15 18 15 31 2 13 -12 14 -23 5 -55 -6 -23 -18 -46 -27
-54 -8 -7 -22 -25 -30 -41 -17 -33 -9 -53 36 -92 36 -29 33 -42 -11 -51 -39
-9 -57 7 -61 53 -4 52 -32 51 -36 -1 -3 -36 1 -43 55 -93 63 -58 87 -67 173
-62 43 2 56 7 58 21 3 15 -5 17 -70 17 -79 0 -115 12 -88 30 9 6 33 7 60 2 79
-13 163 -8 192 12 35 23 54 80 39 119 -6 15 -17 27 -26 27 -12 0 -13 -9 -9
-43 6 -40 4 -46 -22 -66 -26 -20 -37 -23 -97 -18 -89 6 -102 18 -57 56 32 27
34 31 35 97 1 39 9 86 18 107 13 30 21 37 45 37 18 0 36 9 50 25 25 28 80 33
157 14z m358 -119 c33 -57 42 -82 33 -86 -7 -3 -57 -3 -111 -2 l-99 3 -13 60
c-22 109 -25 105 66 105 l79 0 45 -80z m-745 -89 c-7 -11 -16 -17 -20 -14 -10
5 10 33 23 33 5 0 4 -9 -3 -19z m690 -381 l-3 -234 -60 3 c-33 1 -61 4 -62 5
-1 1 -4 73 -7 161 -3 88 -12 186 -19 217 -19 77 -11 86 73 90 36 2 68 0 73 -3
4 -3 6 -111 5 -239z m-1029 -52 c-1 -30 -18 -49 -94 -110 -44 -36 -132 -118
-195 -184 -89 -93 -106 -107 -76 -64 67 95 198 241 275 307 75 64 92 73 90 51z
m-104 -10 c1 -2 -38 -41 -87 -87 -81 -77 -92 -84 -131 -84 l-42 -1 -3 60 c-4
91 13 108 120 114 77 5 139 4 143 -2z m2195 -25 c17 -22 20 -38 18 -86 l-3
-59 -234 1 c-129 0 -235 2 -237 4 -6 6 -8 153 -2 163 4 5 96 8 222 6 l215 -3
21 -26z m-3012 -577 c7 -4 -9 -23 -41 -49 -36 -30 -62 -63 -87 -111 -31 -61
-35 -78 -35 -145 0 -42 4 -93 8 -114 11 -52 -8 -40 -35 20 -13 30 -19 60 -16
91 2 37 0 47 -14 50 -11 2 -18 -6 -23 -28 -14 -62 16 -147 76 -214 32 -37 154
-126 224 -165 l40 -22 -57 6 c-139 13 -280 81 -352 168 -77 94 -120 255 -91
339 29 85 86 142 174 175 37 14 207 13 229 -1z m1662 -606 c11 -203 18 -233
66 -296 53 -69 46 -79 -50 -75 -111 4 -122 10 -140 73 -22 73 -55 273 -63 374
l-6 84 62 63 c34 34 74 80 89 101 l27 39 2 -94 c2 -52 7 -173 13 -269z m-787
320 c87 -33 146 -113 162 -221 18 -124 -82 -257 -266 -354 -39 -20 -69 -43
-69 -51 0 -20 28 -12 100 29 46 27 65 31 120 31 77 -1 125 -22 134 -60 4 -14
5 -29 2 -32 -16 -16 -610 -28 -604 -12 2 5 54 34 116 64 136 67 210 116 279
186 73 73 96 125 91 203 -4 75 -33 122 -87 144 -50 21 -209 19 -339 -5 -116
-22 -122 -13 -23 35 154 74 267 87 384 43z m187 -471 c0 -49 -2 -89 -4 -89 -2
0 -20 7 -39 15 -20 8 -50 15 -67 15 -38 0 -38 9 1 46 17 16 44 48 61 72 16 23
33 40 39 37 5 -4 9 -46 9 -96z"/>
<path d="M2317 3842 c-26 -28 -25 -232 1 -255 25 -22 75 -21 95 1 26 28 25
232 -1 255 -25 22 -75 21 -95 -1z"/>
<path d="M2660 3840 c-17 -17 -20 -33 -20 -125 0 -92 3 -108 20 -125 20 -20
65 -26 86 -12 25 16 34 56 34 146 0 109 -14 136 -70 136 -17 0 -39 -9 -50 -20z"/>
<path d="M3007 3842 c-26 -28 -25 -232 1 -255 25 -22 75 -21 95 1 26 28 25
232 -1 255 -25 22 -75 21 -95 -1z"/>
<path d="M3349 3843 c-9 -11 -15 -51 -17 -124 -3 -98 -2 -109 17 -128 27 -27
75 -27 101 -1 17 17 20 33 20 123 0 124 -11 147 -69 147 -24 0 -44 -6 -52 -17z"/>
<path d="M3697 3842 c-26 -28 -25 -232 1 -255 26 -24 75 -21 98 4 17 18 19 35
17 127 -2 82 -6 109 -19 124 -22 23 -76 24 -97 0z"/>
<path d="M3016 3389 c-25 -20 -26 -23 -26 -134 0 -106 1 -115 22 -129 12 -9
32 -16 43 -16 11 0 31 7 43 16 21 14 22 23 22 129 0 111 -1 114 -26 134 -15
12 -32 21 -39 21 -7 0 -24 -9 -39 -21z"/>
<path d="M3355 3385 c-23 -22 -25 -31 -25 -123 0 -85 3 -103 21 -126 13 -17
30 -26 49 -26 19 0 36 9 49 26 18 23 21 41 21 126 0 92 -2 101 -25 123 -31 32
-59 32 -90 0z"/>
<path d="M3706 3389 c-25 -20 -26 -24 -26 -130 0 -96 2 -111 20 -129 25 -25
61 -26 91 -1 22 18 24 26 24 126 0 105 -1 107 -28 131 -34 29 -47 30 -81 3z"/>
</g>
</svg>
