<?xml version="1.0" standalone="no"?>
<!DOCTYPE svg PUBLIC "-//W3C//DTD SVG 20010904//EN"
 "http://www.w3.org/TR/2001/REC-SVG-20010904/DTD/svg10.dtd">
<svg version="1.0" xmlns="http://www.w3.org/2000/svg"
 width="318.000000pt" height="389.000000pt" viewBox="0 0 318.000000 389.000000"
 preserveAspectRatio="xMidYMid meet">

<g transform="translate(0.000000,389.000000) scale(0.100000,-0.100000)"
fill="#000000" stroke="none">
<path d="M795 3822 c-81 -17 -120 -63 -180 -212 -21 -52 -83 -187 -137 -300
-55 -113 -112 -236 -128 -275 -47 -117 -60 -266 -41 -455 7 -74 7 -76 -35
-165 -53 -116 -107 -281 -144 -448 -42 -191 -52 -282 -52 -467 -1 -145 2 -176
25 -260 45 -170 130 -330 287 -539 113 -151 184 -231 273 -309 182 -161 382
-261 630 -314 148 -31 446 -31 594 0 350 75 608 243 850 553 185 238 293 430
340 607 23 87 26 115 25 267 0 196 -17 324 -68 528 -42 163 -81 280 -134 392
-36 78 -37 82 -29 155 17 165 7 324 -27 420 -9 25 -67 151 -129 280 -62 129
-125 267 -140 305 -41 104 -85 184 -114 204 -77 55 -174 43 -252 -32 -90 -86
-200 -267 -274 -451 -19 -49 -39 -94 -44 -100 -12 -14 -587 -14 -600 -1 -5 6
-32 64 -60 129 -100 238 -231 426 -324 469 -38 17 -85 25 -112 19z m98 -217
c70 -90 136 -206 193 -342 29 -70 65 -143 79 -160 53 -67 55 -67 420 -68 428
-2 410 -10 508 226 83 196 212 399 256 399 14 0 29 -24 61 -102 24 -57 93
-209 155 -338 62 -129 120 -256 129 -282 24 -73 30 -192 16 -340 l-12 -136 35
-64 c93 -169 207 -594 207 -776 l0 -44 -44 54 c-51 63 -127 122 -211 167 -33
17 -67 41 -75 54 -9 15 -15 58 -16 132 -2 78 -8 129 -23 175 -84 263 -329 421
-601 388 -137 -17 -282 -98 -360 -203 -19 -25 -37 -45 -40 -45 -3 0 -22 21
-41 46 -19 25 -63 68 -99 95 -282 212 -679 114 -831 -206 -44 -92 -63 -192
-54 -280 8 -81 -15 -115 -113 -170 -40 -22 -99 -64 -133 -94 l-61 -54 7 59
c27 233 123 566 207 712 l30 53 -12 136 c-14 149 -8 268 16 341 9 26 67 153
129 282 62 129 131 281 155 338 51 122 61 126 123 47z m372 -1250 c117 -57
194 -163 216 -297 6 -35 13 -73 15 -86 3 -14 18 -29 39 -39 33 -16 37 -16 70
0 21 10 36 25 39 39 2 13 9 51 15 86 22 134 99 240 216 298 55 26 69 29 165
29 99 0 110 -2 171 -32 152 -75 236 -229 221 -408 -10 -126 53 -227 181 -292
227 -114 329 -386 221 -590 -53 -99 -161 -256 -263 -380 -141 -173 -306 -302
-480 -374 -82 -34 -195 -69 -224 -69 -17 0 -16 4 8 31 72 86 128 268 129 421
1 94 2 97 28 113 119 70 192 208 259 493 22 92 16 132 -22 152 -62 34 -110 -6
-134 -110 -33 -141 -85 -288 -118 -332 -18 -24 -52 -53 -77 -66 -50 -26 -91
-24 -204 7 -56 16 -61 20 -64 48 -3 27 2 34 40 54 115 64 148 221 64 305 -40
40 -89 54 -186 54 -97 0 -146 -14 -186 -54 -84 -84 -53 -235 61 -302 41 -24
46 -30 43 -58 -3 -30 -5 -31 -96 -54 -132 -34 -189 -18 -252 69 -31 43 -84
196 -115 329 -24 104 -72 144 -134 110 -38 -20 -43 -59 -22 -153 66 -282 140
-422 259 -492 26 -16 27 -19 28 -113 1 -153 57 -335 129 -421 24 -28 25 -31 8
-31 -35 0 -208 59 -283 97 -169 86 -298 193 -432 359 -166 206 -283 397 -323
529 -13 44 -13 57 1 116 30 131 122 245 255 315 128 67 189 169 175 295 -11
111 26 227 101 310 47 52 83 77 152 106 48 20 69 23 151 21 82 -3 104 -8 155
-33z m245 -1623 c0 -78 15 -107 59 -117 33 -7 85 15 95 40 3 9 6 46 6 81 0 35
1 64 3 64 1 0 27 -7 57 -15 30 -8 67 -15 82 -15 21 0 29 -6 34 -26 16 -62 -30
-261 -78 -342 -40 -66 -97 -96 -178 -96 -141 0 -216 99 -252 334 -15 97 -7
130 30 130 15 0 50 7 77 14 28 8 53 15 58 15 4 1 7 -29 7 -67z"/>
<path d="M2305 3310 c-13 -5 -42 -55 -84 -145 -55 -119 -62 -140 -52 -161 6
-13 50 -50 98 -80 49 -31 118 -77 155 -101 80 -52 102 -53 106 -2 6 75 -26
179 -104 335 -41 84 -81 155 -87 157 -7 2 -21 1 -32 -3z"/>
<path d="M761 3168 c-86 -174 -98 -207 -107 -303 -6 -66 -5 -75 11 -81 10 -4
25 -2 34 3 9 6 75 48 146 93 148 94 179 122 169 153 -3 12 -33 79 -67 150 -55
117 -62 127 -87 127 -25 0 -33 -12 -99 -142z"/>
<path d="M1015 2101 c-51 -24 -112 -85 -120 -122 -11 -49 27 -98 78 -99 19 0
39 12 67 40 43 44 89 53 126 25 32 -25 89 -19 113 11 27 34 27 64 -1 99 -49
62 -179 85 -263 46z"/>
<path d="M1964 2101 c-47 -21 -84 -64 -84 -96 0 -12 9 -34 21 -49 23 -30 68
-34 109 -11 47 27 87 19 130 -25 47 -48 77 -51 121 -12 28 25 31 33 25 64 -8
43 -64 104 -120 129 -54 25 -148 25 -202 0z"/>
</g>
</svg>
